<?xml version="1.0" standalone="no"?>
<!DOCTYPE svg PUBLIC "-//W3C//DTD SVG 20010904//EN"
 "http://www.w3.org/TR/2001/REC-SVG-20010904/DTD/svg10.dtd">
<svg version="1.0" xmlns="http://www.w3.org/2000/svg"
 width="545.000000pt" height="545.000000pt" viewBox="0 0 545.000000 545.000000"
 preserveAspectRatio="xMidYMid meet">
<metadata>
Created by potrace 1.14, written by Peter Selinger 2001-2017
</metadata>
<g transform="translate(0.000000,545.000000) scale(0.100000,-0.100000)"
fill="#000000" stroke="none">
<path d="M3273 5370 c-36 -22 -60 -82 -49 -125 11 -43 59 -85 96 -85 l32 0 -4
-97 c-5 -109 -23 -164 -77 -225 -21 -25 -37 -34 -50 -31 -35 9 -59 -14 -70
-67 -16 -73 -14 -108 7 -119 24 -12 822 -191 854 -191 38 0 56 23 63 84 9 70
5 88 -25 103 -19 9 -29 29 -46 93 -26 96 -77 206 -132 287 -84 122 -239 244
-370 290 -29 10 -55 25 -58 35 -3 9 -19 29 -35 43 -37 31 -91 33 -136 5z"/>
<path d="M3137 4471 c-38 -95 -28 -241 24 -343 27 -54 110 -141 163 -172 115
-67 278 -75 399 -19 88 42 169 119 207 197 27 57 57 182 46 193 -3 4 -471 108
-797 178 -23 5 -28 1 -42 -34z"/>
<path d="M2830 4250 c-125 -16 -225 -69 -395 -211 -343 -286 -780 -796 -871
-1017 -52 -125 -20 -220 128 -378 l60 -64 -33 0 c-46 0 -812 -38 -876 -44
l-51 -4 -6 34 c-4 18 -18 47 -32 63 -67 80 -194 25 -194 -84 0 -21 -5 -25 -30
-25 -69 0 -110 -45 -110 -120 0 -62 57 -106 120 -94 29 6 30 5 30 -31 0 -29 8
-45 35 -72 33 -33 39 -35 82 -30 63 7 103 49 103 107 0 39 1 40 34 40 78 0
2880 150 2995 160 140 13 170 24 205 78 51 77 42 169 -22 232 -22 21 -161 104
-337 200 -165 90 -302 165 -305 167 -2 2 -9 149 -15 325 -8 244 -14 323 -24
326 -7 2 -46 27 -88 54 -114 77 -205 206 -235 336 -12 48 -15 52 -43 52 -16 0
-39 2 -50 4 -11 2 -45 0 -75 -4z m159 -1191 c1 -54 6 -73 27 -105 34 -50 35
-51 254 -171 182 -101 184 -103 140 -103 -24 0 -221 -9 -437 -20 l-393 -21
-50 42 c-28 24 -49 46 -48 49 2 4 55 55 118 113 63 58 174 164 245 236 l130
131 7 -42 c3 -24 7 -73 7 -109z"/>
<path d="M2498 2281 c-163 -9 -299 -19 -302 -22 -3 -3 91 -79 209 -169 118
-89 215 -168 215 -174 0 -23 -395 -966 -405 -966 -6 0 -362 102 -790 226 -852
246 -828 241 -906 190 -105 -70 -102 -241 4 -311 12 -7 720 -215 1572 -460
853 -245 1613 -465 1690 -487 121 -36 153 -42 235 -42 222 0 425 125 518 321
72 152 49 263 -63 314 -102 47 -220 -5 -255 -111 -28 -86 -115 -153 -200 -154
-30 -1 -251 58 -670 178 -344 99 -626 180 -627 181 -2 1 101 253 228 561 134
326 233 578 236 605 3 28 -1 68 -11 105 -15 53 -26 68 -108 147 l-91 87 -91
-1 c-50 -1 -225 -9 -388 -18z"/>
</g>
</svg>
